<?xml version="1.0" encoding="utf-8"?>
<!-- Generator: Adobe Illustrator 24.2.0, SVG Export Plug-In . SVG Version: 6.00 Build 0)  -->
<svg version="1.1" id="Layer_1" xmlns="http://www.w3.org/2000/svg" xmlns:xlink="http://www.w3.org/1999/xlink" x="0px" y="0px"
	 viewBox="0 0 800 307" enable-background="new 0 0 800 307" xml:space="preserve">
<path d="M0,307c0-80,0-160,0-240c3.5-4.4,7-8.9,10.9-13.7c15.8,25.7,31.3,51,47.2,76.8c9.7-12.5,18.8-24.3,27.5-35.5
	c14.6,14.1,28.9,27.8,43.3,41.6c6.3-10.6,12.8-21.4,19.7-32.8c14.2,19.2,28,37.9,42,56.9c7-8.5,13.7-16.6,20.6-24.9
	c4.2,5.3,8,10,12,15c8.9-14,17.5-27.5,26.4-41.4c5.3,9.3,10.3,17.9,15.6,27.2c9.1-14.7,17.7-28.5,26.7-43.1
	c9.7,12.5,18.9,24.4,28.3,36.7c14.3-18.3,28-36,42.1-54.1c6.3,7.8,12.3,15.1,17.5,21.5c19.5-31,38.7-61.6,58.3-92.8
	C466.8,42.5,495,80.1,523.5,118c9.7-13.7,19.3-27.1,29.1-40.9c4.8,6.6,9.2,12.9,14,19.6c12-19.8,23.6-39,35.6-58.9
	c11.4,21.8,22.3,42.5,33.7,64.3c6.3-16.9,12.1-32.4,18.3-49c16,34.6,31.5,68.1,47.2,102.3c9.7-15.5,19.1-30.6,28.8-46.1
	c6.1,11.4,11.7,22.2,17.8,33.6c7.8-11.3,14.9-21.7,22.2-32c9.8-14,19.8-27.9,29.7-41.8c0,79.3,0,158.6,0,238
	C533.3,307,266.7,307,0,307"/>
</svg>
